<svg xmlns="http://www.w3.org/2000/svg" xmlns:xlink="http://www.w3.org/1999/xlink" width="1024" zoomAndPan="magnify" viewBox="0 0 768 767.999994" height="1024" preserveAspectRatio="xMidYMid meet" version="1.0"><defs><clipPath id="id1"><path d="M 321 300 L 675.964844 300 L 675.964844 380 L 321 380 Z M 321 300 " clip-rule="nonzero"/></clipPath><clipPath id="id2"><path d="M 91.714844 326 L 673 326 L 673 454 L 91.714844 454 Z M 91.714844 326 " clip-rule="nonzero"/></clipPath></defs><rect x="-76.8" width="921.6" fill="#ffffff" y="-76.799999" height="921.599993" fill-opacity="1"/><rect x="-76.8" width="921.6" fill="#ffffff" y="-76.799999" height="921.599993" fill-opacity="1"/><rect x="-76.8" width="921.6" fill="#ffffff" y="-76.799999" height="921.599993" fill-opacity="1"/><path fill="#050a30" d="M 36 0 L 732 0 C 741.546875 0 750.703125 3.792969 757.457031 10.542969 C 764.207031 17.296875 768 26.453125 768 36 L 768 732 C 768 751.882812 751.882812 768 732 768 L 36 768 C 26.453125 768 17.296875 764.207031 10.542969 757.457031 C 3.792969 750.703125 0 741.546875 0 732 L 0 36 C 0 16.117188 16.117188 0 36 0 " fill-opacity="1" fill-rule="nonzero"/><g clip-path="url(#id1)"><path fill="#5cb6f9" d="M 322.265625 300.265625 C 431.515625 367.6875 553.089844 357.890625 675.304688 316.042969 L 675.964844 316.726562 C 589.171875 401.589844 388.109375 405.128906 321.421875 300.789062 L 322.265625 300.265625 " fill-opacity="1" fill-rule="nonzero"/></g><g clip-path="url(#id2)"><path fill="#5cb6f9" d="M 91.714844 373.917969 C 134.050781 334.285156 204.003906 320.128906 266.582031 329.398438 C 313.867188 336.40625 353.921875 358.121094 396.441406 374.902344 C 495.921875 414.148438 570.894531 379.488281 672.542969 373.917969 C 601.269531 425.085938 511.804688 467.871094 413.671875 448.234375 C 362.183594 437.9375 321.285156 410.65625 275.4375 390.699219 C 216.394531 365.015625 156.53125 364.171875 91.714844 373.917969 " fill-opacity="1" fill-rule="nonzero"/></g></svg>